# xmcd
#
# Track frame offsets:
# 150
# 14598
# 32455
# 49843
# 64779
# 84045
# 99729
# 113183
# 128602
# 145007
# 157763
# 174825
# 188430
# 201522
# 218626
# 232320
# 257291
# 273289
# 286893
# 301031
# 315458
# 328556
#
# Disc length: 4610 seconds
#
#
# Revision: 0
# Processed by: cddbd v1.5.1PL2 Copyright (c) Steve Scherf et al.
# Submitted via: FreeRIP 2.944 
#
DISCID=1c120016
DTITLE=Gino and Geno - Dançante 2005
DYEAR=1900
DGENRE=Sertanejo
TTITLE0=a galera do chapéu
TTITLE1=a mulher e a bebida
TTITLE2=acidente de amor
TTITLE3=agita aí
TTITLE4=apaixonado por você
TTITLE5=bebo pa carai
TTITLE6=cabelo de samambaia
TTITLE7=cara boa
TTITLE8=ela chorou de amor
TTITLE9=foi uma noite só
TTITLE10=mulher que não dá voa
TTITLE11=nóis enverga mais não quebra
TTITLE12=o bem intencionado
TTITLE13=o gavião
TTITLE14=o que eu tô fazendo aqui
TTITLE15=paixão mineira
TTITLE16=pinga na garganta
TTITLE17=que bicho que é
TTITLE18=cara de boi
TTITLE19=tô ficando com ela
TTITLE20=uma notícia pra te dar
TTITLE21=vou beber veneno
EXTD=
EXTT0=
EXTT1=
EXTT2=
EXTT3=
EXTT4=
EXTT5=
EXTT6=
EXTT7=
EXTT8=
EXTT9=
EXTT10=
EXTT11=
EXTT12=
EXTT13=
EXTT14=
EXTT15=
EXTT16=
EXTT17=
EXTT18=
EXTT19=
EXTT20=
EXTT21=
PLAYORDER=
